<svg width="100" height="100" viewBox="0 0 100 100" fill="none" xmlns="http://www.w3.org/2000/svg">
<path d="M61.63 20C61.55 19.64 61.44 19.29 61.34 18.93C61.24 18.57 61.22 18.44 61.15 18.2C59.809 16.023 58.1392 14.0665 56.2 12.4C52.8643 9.50171 48.8134 7.54936 44.4681 6.74572C40.1229 5.94209 35.6417 6.31647 31.49 7.83C34.8206 8.42654 37.9657 9.79331 40.6742 11.8212C43.3827 13.8492 45.5798 16.4821 47.09 19.51L47 19.44C46.59 19.04 46.18 18.67 45.77 18.3C41.3725 14.5184 35.7649 12.4388 29.965 12.4388C24.1651 12.4388 18.5575 14.5184 14.16 18.3C13.84 18.57 13.54 18.87 13.25 19.16C12.96 19.45 12.45 19.97 12.05 20.39C11.83 20.63 11.6 20.87 11.39 21.13C10.56 22 9.77 23 9 24C13.3977 22.1012 18.2264 21.4247 22.9766 22.0419C27.7268 22.6591 32.2224 24.547 35.9888 27.5066C39.7553 30.4661 42.6531 34.3874 44.3764 38.8568C46.0997 43.3262 46.5846 48.1779 45.78 52.9C45.78 53.01 45.72 53.12 45.7 53.23C46.48 52.85 47.25 52.43 48 51.97C52.151 49.4535 55.6222 45.9583 58.11 41.79C58.2 41.63 58.28 41.47 58.37 41.32C62.0429 34.8565 63.2036 27.2657 61.63 20Z" fill="#FF9400"/>
<path d="M80.83 21.74C81.46 22.53 82.05 23.34 82.61 24.17C86.3796 29.756 88.508 36.2868 88.7537 43.0212C88.9994 49.7557 87.3525 56.4242 84 62.27C80.3006 68.0939 74.8998 72.6395 68.5299 75.2905C62.16 77.9415 55.129 78.5697 48.39 77.09C46.7347 76.7255 45.1099 76.2341 43.53 75.62C44.5295 76.8662 45.7415 77.9259 47.11 78.75C48.4614 79.5517 49.9444 80.107 51.49 80.39H50.87C50.0633 80.35 49.2533 80.28 48.44 80.18H48.33C46.7656 79.9893 45.2156 79.6953 43.69 79.3L43.45 79.23C42.72 79.04 42 78.83 41.28 78.59H41.22C40.45 78.32 39.68 78.04 38.92 77.72C38.21 77.42 37.5 77.1 36.8 76.72L36.38 76.52C35.67 76.15 34.96 75.77 34.27 75.36C33.58 74.95 32.98 74.56 32.35 74.13L32.19 74L32 73.89C31.48 73.53 31 73.15 30.47 72.76H30.4C26.1644 69.4035 22.7368 65.1385 20.37 60.28C20.02 59.57 19.7 58.85 19.37 58.12L19.13 57.51C18.9 56.92 18.69 56.34 18.5 55.75C18.44 55.57 18.37 55.39 18.32 55.21C18.09 54.5 17.88 53.77 17.7 53.05L17.58 52.61C17.58 52.61 16.89 54.31 16.73 54.76C15.4769 58.1337 15.0948 61.769 15.6192 65.3295C16.1436 68.89 17.5574 72.2608 19.73 75.13C20.9068 76.6868 22.2933 78.0732 23.85 79.25C21.37 80.32 18.6083 80.5504 15.9853 79.9059C13.3623 79.2614 11.0218 77.7775 9.32001 75.68C12.7629 80.6335 17.1703 84.8409 22.2781 88.0504C27.3859 91.2598 33.089 93.405 39.0457 94.3577C45.0025 95.3103 51.0902 95.0506 56.9442 93.5942C62.7982 92.1378 68.2979 89.5147 73.1139 85.882C77.9298 82.2493 81.9629 77.6818 84.9715 72.4532C87.9801 67.2246 89.9022 61.4424 90.6227 55.4532C91.3432 49.4639 90.8472 43.3909 89.1645 37.5979C87.4818 31.8049 84.647 26.4112 80.83 21.74Z" fill="#FF3500"/>
<path d="M82.61 24.17C82.05 23.34 81.46 22.53 80.83 21.74C80.38 21.19 79.91 20.65 79.44 20.11C72.8419 12.7827 64.0198 7.8253 54.33 6C55.0575 6.78837 55.7451 7.61274 56.39 8.47C56.93 9.19 57.39 9.94 57.89 10.7C59.3068 13.0325 60.4033 15.545 61.15 18.17C61.22 18.41 61.28 18.66 61.34 18.9C61.4 19.14 61.55 19.61 61.63 19.97C63.2113 27.2452 62.0503 34.8482 58.37 41.32C58.28 41.47 58.2 41.63 58.11 41.79C55.9318 45.4575 52.9924 48.6151 49.49 51.05C49 51.39 48.49 51.71 48 52.05C47.25 52.51 46.48 52.93 45.7 53.31L45.53 53.41C43.8439 54.2337 42.0868 54.9031 40.28 55.41C32.648 57.493 24.5025 56.4833 17.61 52.6L17.73 53.04C17.91 53.76 18.12 54.49 18.35 55.2C18.4 55.38 18.47 55.56 18.53 55.74C18.72 56.33 18.93 56.91 19.16 57.5L19.4 58.11C19.7 58.84 20.02 59.56 20.4 60.27C21.1804 61.8568 22.0761 63.3842 23.08 64.84C23.58 65.58 24.08 66.29 24.68 66.99C26.3876 69.1094 28.33 71.0283 30.47 72.71H30.54C31.04 73.1 31.54 73.48 32.07 73.84L32.22 73.95L32.38 74.07C33.01 74.5 33.64 74.91 34.3 75.3C34.96 75.69 35.7 76.09 36.41 76.46L36.83 76.66C37.53 77.01 38.24 77.33 38.95 77.66C39.71 77.98 40.48 78.26 41.25 78.53H41.31C42.03 78.77 42.75 78.98 43.48 79.17L43.72 79.24C45.2456 79.6353 46.7956 79.9293 48.36 80.12H48.47C49.2833 80.22 50.0933 80.29 50.9 80.33H51.52C50.3722 80.1166 49.2564 79.757 48.2 79.26C47.84 79.08 47.49 78.9 47.14 78.69C45.7715 77.8659 44.5595 76.8062 43.56 75.56C45.1398 76.1741 46.7647 76.6655 48.42 77.03C49.04 77.17 49.65 77.28 50.27 77.38C55.213 78.1848 60.2733 77.8771 65.0825 76.4794C69.8916 75.0816 74.3284 72.629 78.07 69.3C78.68 68.75 79.28 68.17 79.85 67.57C81.4075 65.9469 82.7978 64.1713 84 62.27C87.3525 56.4242 88.9994 49.7557 88.7537 43.0212C88.508 36.2868 86.3796 29.756 82.61 24.17Z" fill="#FC7E05"/>
</svg>
