<svg width="209" height="134" viewBox="0 0 209 134" fill="none" xmlns="http://www.w3.org/2000/svg">
<rect width="209" height="134" rx="4" fill="white"/>
<rect x="0.5" y="0.5" width="208" height="133" rx="3.5" stroke="black" stroke-opacity="0.4"/>
<path d="M14.4531 8.95852C14.4531 10.8806 12.8924 12.4401 10.9656 12.4401C9.03882 12.4401 7.47812 10.8806 7.47812 8.95852C7.47812 7.03641 9.03882 5.47696 10.9656 5.47696C12.8924 5.47696 14.4531 7.03641 14.4531 8.95852Z" fill="#EE6A5F" stroke="#CE5348"/>
<path d="M24.4219 8.95852C24.4219 10.8806 22.8612 12.4401 20.9344 12.4401C19.0076 12.4401 17.4469 10.8806 17.4469 8.95852C17.4469 7.03641 19.0076 5.47696 20.9344 5.47696C22.8612 5.47696 24.4219 7.03641 24.4219 8.95852Z" fill="#F5BD50" stroke="#D6A244"/>
<path d="M34.3906 8.95852C34.3906 10.8806 32.8299 12.4401 30.9031 12.4401C28.9763 12.4401 27.4156 10.8806 27.4156 8.95852C27.4156 7.03641 28.9763 5.47696 30.9031 5.47696C32.8299 5.47696 34.3906 7.03641 34.3906 8.95852Z" fill="#61C454" stroke="#58A943"/>
<line y1="17.417" x2="208.347" y2="17.417" stroke="#979797"/>
<mask id="path-7-inside-1_20_3" fill="white">
<path d="M1 116.426H208V130.426C208 132.083 206.657 133.426 205 133.426H4C2.34315 133.426 1 132.083 1 130.426V116.426Z"/>
</mask>
<path d="M1 116.426H208V130.426C208 132.083 206.657 133.426 205 133.426H4C2.34315 133.426 1 132.083 1 130.426V116.426Z" fill="#FC7E04"/>
<path d="M1 115.426H208V117.426H1V115.426ZM208 133.426H1H208ZM1 133.426V116.426V133.426ZM208 116.426V133.426V116.426Z" fill="#FFAD5E" mask="url(#path-7-inside-1_20_3)"/>
<rect x="162.491" y="122.433" width="18.9406" height="5.97234" fill="white"/>
<rect x="185.419" y="122.433" width="18.9406" height="5.97234" fill="white"/>
</svg>
