<svg width="210" height="135" viewBox="0 0 210 135" fill="none" xmlns="http://www.w3.org/2000/svg">
<rect width="209.655" height="134.621" rx="4" fill="white"/>
<rect x="0.5" y="0.5" width="208.655" height="133.621" rx="3.5" stroke="black" stroke-opacity="0.4"/>
<circle cx="11" cy="9" r="3.5" fill="#EE6A5F" stroke="#CE5348"/>
<circle cx="21" cy="9" r="3.5" fill="#F5BD50" stroke="#D6A244"/>
<circle cx="31" cy="9" r="3.5" fill="#61C454" stroke="#58A943"/>
<line y1="17.5" x2="209" y2="17.5" stroke="#979797"/>
<rect x="0.5" y="-0.5" width="114" height="14" transform="matrix(1 0 0 -1 13 103)" fill="#FC7E04" stroke="#FFAD5E"/>
<rect x="79" y="94" width="19" height="6" fill="white"/>
<rect x="102" y="94" width="19" height="6" fill="white"/>
<line x1="13" y1="38" x2="128" y2="38" stroke="#E1E1E1" stroke-width="2"/>
<line x1="13" y1="48" x2="128" y2="48" stroke="#E1E1E1" stroke-width="2"/>
<line x1="13" y1="58" x2="128" y2="58" stroke="#E1E1E1" stroke-width="2"/>
<line x1="13" y1="68" x2="128" y2="68" stroke="#E1E1E1" stroke-width="2"/>
<line x1="13" y1="78" x2="128" y2="78" stroke="#E1E1E1" stroke-width="2"/>
<line x1="13" y1="117" x2="128" y2="117" stroke="#E1E1E1" stroke-width="2"/>
<line x1="13" y1="127" x2="128" y2="127" stroke="#E1E1E1" stroke-width="2"/>
</svg>
