<svg width="210" height="135" viewBox="0 0 210 135" fill="none" xmlns="http://www.w3.org/2000/svg">
<rect width="209.655" height="134.621" rx="4" fill="white"/>
<rect x="0.5" y="0.5" width="208.655" height="133.621" rx="3.5" stroke="black" stroke-opacity="0.4"/>
<circle cx="11" cy="9" r="3.5" fill="#EE6A5F" stroke="#CE5348"/>
<circle cx="21" cy="9" r="3.5" fill="#F5BD50" stroke="#D6A244"/>
<circle cx="31" cy="9" r="3.5" fill="#61C454" stroke="#58A943"/>
<line y1="17.5" x2="209" y2="17.5" stroke="#979797"/>
<rect x="150.5" y="103.5" width="52" height="24" rx="3.5" fill="#FC7E04" stroke="#FFAD5E"/>
<rect x="178" y="119" width="22" height="6" rx="2" fill="white"/>
<rect x="153" y="119" width="22" height="6" rx="2" fill="white"/>
<g clip-path="url(#clip0_107_106)">
<path d="M183.431 103.866C183.329 103.88 183.226 103.888 183.121 103.888C182.15 103.888 181.329 103.254 181.048 102.377C180.999 102.227 180.877 102.112 180.722 102.082C179.112 101.776 177.893 100.361 177.893 98.6607C177.893 97.9462 178.108 97.2833 178.477 96.7306C178.565 96.5994 178.492 96.4244 178.337 96.3938C177.911 96.3092 177.472 96.2647 177.022 96.2647C173.293 96.2647 170.27 99.2878 170.27 103.017C170.27 106.746 173.293 109.769 177.022 109.769C180.383 109.769 183.161 107.323 183.684 104.108C183.708 103.963 183.577 103.844 183.431 103.866Z" fill="#F5B97D"/>
<path d="M174.844 100.839C174.844 100.896 174.838 100.952 174.827 101.009C174.815 101.065 174.799 101.119 174.777 101.172C174.756 101.225 174.729 101.276 174.697 101.323C174.665 101.37 174.629 101.414 174.589 101.455C174.548 101.495 174.504 101.531 174.457 101.563C174.409 101.595 174.359 101.622 174.306 101.644C174.253 101.666 174.199 101.682 174.142 101.693C174.086 101.704 174.029 101.71 173.972 101.71C173.915 101.71 173.859 101.704 173.803 101.693C173.746 101.682 173.692 101.666 173.639 101.644C173.586 101.622 173.536 101.595 173.488 101.563C173.441 101.531 173.397 101.495 173.356 101.455C173.316 101.414 173.28 101.37 173.248 101.323C173.216 101.276 173.189 101.225 173.167 101.172C173.146 101.119 173.129 101.065 173.118 101.009C173.107 100.952 173.101 100.896 173.101 100.839C173.101 100.782 173.107 100.725 173.118 100.669C173.129 100.613 173.146 100.558 173.167 100.506C173.189 100.452 173.216 100.402 173.248 100.355C173.28 100.307 173.316 100.263 173.356 100.223C173.397 100.182 173.441 100.146 173.488 100.115C173.536 100.083 173.586 100.056 173.639 100.034C173.692 100.012 173.746 99.9958 173.803 99.9842C173.859 99.9732 173.915 99.9674 173.972 99.9674C174.029 99.9674 174.086 99.9732 174.142 99.9842C174.199 99.9958 174.253 100.012 174.306 100.034C174.359 100.056 174.409 100.083 174.457 100.115C174.504 100.146 174.548 100.182 174.589 100.223C174.629 100.263 174.665 100.307 174.697 100.355C174.729 100.402 174.756 100.452 174.777 100.506C174.799 100.558 174.815 100.613 174.827 100.669C174.838 100.725 174.844 100.782 174.844 100.839Z" fill="#CD916E"/>
<path d="M175.061 105.195C175.061 105.282 175.045 105.365 175.012 105.445C174.979 105.525 174.931 105.596 174.87 105.657C174.809 105.718 174.738 105.766 174.658 105.799C174.578 105.832 174.495 105.848 174.408 105.848C174.321 105.848 174.238 105.832 174.158 105.799C174.078 105.766 174.008 105.718 173.946 105.657C173.884 105.596 173.838 105.525 173.804 105.445C173.771 105.365 173.754 105.282 173.754 105.195C173.754 105.108 173.771 105.025 173.804 104.945C173.838 104.864 173.884 104.794 173.946 104.733C174.008 104.671 174.078 104.625 174.158 104.591C174.238 104.558 174.321 104.541 174.408 104.541C174.495 104.541 174.578 104.558 174.658 104.591C174.738 104.625 174.809 104.671 174.87 104.733C174.931 104.794 174.979 104.864 175.012 104.945C175.045 105.025 175.061 105.108 175.061 105.195Z" fill="#CD916E"/>
<path d="M179.827 98.03L179.764 98.4048C179.713 98.7132 179.887 99.0144 180.179 99.1245L180.733 99.3316C181.098 99.4686 181.501 99.2572 181.596 98.8787L181.793 98.0898C181.916 97.5976 181.457 97.1594 180.971 97.3052L180.283 97.5116C180.045 97.583 179.868 97.7843 179.827 98.03Z" fill="#F5B97D"/>
<path d="M182.031 100.403L181.769 100.535C181.562 100.637 181.472 100.884 181.563 101.096L181.775 101.59C181.903 101.889 182.301 101.947 182.51 101.697L182.85 101.289C183.01 101.097 182.976 100.81 182.776 100.661L182.488 100.444C182.356 100.345 182.179 100.329 182.031 100.403Z" fill="#F5B97D"/>
<path d="M183.774 99.096C183.774 99.1537 183.763 99.2098 183.74 99.263C183.719 99.3163 183.687 99.3637 183.646 99.4045C183.606 99.4453 183.558 99.4767 183.505 99.4985C183.452 99.5204 183.396 99.5321 183.339 99.5321C183.28 99.5321 183.225 99.5204 183.172 99.4985C183.118 99.4767 183.071 99.4453 183.03 99.4045C182.989 99.3637 182.958 99.3163 182.936 99.263C182.914 99.2098 182.903 99.1537 182.903 99.096C182.903 99.0384 182.914 98.983 182.936 98.9298C182.958 98.8758 182.989 98.8292 183.03 98.7883C183.071 98.7475 183.118 98.7162 183.172 98.6935C183.225 98.6717 183.28 98.6607 183.339 98.6607C183.396 98.6607 183.452 98.6717 183.505 98.6935C183.558 98.7162 183.606 98.7475 183.646 98.7883C183.687 98.8292 183.719 98.8758 183.74 98.9298C183.763 98.983 183.774 99.0384 183.774 99.096Z" fill="#F5B97D"/>
<path d="M177.839 108.952C174.11 108.952 171.086 105.929 171.086 102.2C171.086 100.543 171.684 99.0268 172.674 97.8521C171.204 99.0909 170.27 100.944 170.27 103.017C170.27 106.746 173.293 109.769 177.022 109.769C179.096 109.769 180.947 108.837 182.184 107.368C181.011 108.356 179.496 108.952 177.839 108.952Z" fill="#E3AA75"/>
<path d="M180.83 98.8263C180.464 98.6892 180.247 98.3129 180.311 97.9279L180.386 97.4809L180.283 97.5116C180.045 97.583 179.868 97.7843 179.827 98.03L179.764 98.4048C179.713 98.7132 179.887 99.0144 180.179 99.1245L180.733 99.3316C181.026 99.4417 181.341 99.325 181.504 99.0793L180.83 98.8263Z" fill="#E3AA75"/>
<path d="M182.239 101.309L182 100.75C181.955 100.645 181.951 100.532 181.978 100.43L181.769 100.535C181.562 100.637 181.472 100.884 181.563 101.096L181.775 101.59C181.903 101.889 182.301 101.947 182.51 101.697L182.594 101.596C182.445 101.565 182.308 101.469 182.239 101.309Z" fill="#E3AA75"/>
<path d="M174.436 101.247C173.954 101.247 173.564 100.857 173.564 100.376C173.564 100.255 173.588 100.141 173.633 100.036C173.321 100.169 173.101 100.478 173.101 100.839C173.101 101.32 173.491 101.71 173.972 101.71C174.333 101.71 174.643 101.491 174.775 101.179C174.67 101.222 174.556 101.247 174.436 101.247Z" fill="#B67F5F"/>
<path d="M174.748 105.508C174.387 105.508 174.095 105.216 174.095 104.855C174.095 104.762 174.115 104.675 174.149 104.595C173.917 104.696 173.754 104.926 173.754 105.195C173.754 105.556 174.047 105.848 174.408 105.848C174.677 105.848 174.907 105.686 175.007 105.454C174.928 105.489 174.84 105.508 174.748 105.508Z" fill="#B67F5F"/>
<path d="M179.418 105.848C179.418 105.906 179.412 105.963 179.401 106.018C179.389 106.074 179.373 106.129 179.352 106.182C179.33 106.235 179.303 106.285 179.271 106.332C179.239 106.38 179.203 106.424 179.163 106.464C179.122 106.505 179.078 106.541 179.031 106.573C178.983 106.604 178.933 106.631 178.88 106.653C178.827 106.675 178.773 106.692 178.716 106.703C178.66 106.714 178.603 106.719 178.547 106.719C178.49 106.719 178.433 106.714 178.377 106.703C178.321 106.692 178.266 106.675 178.213 106.653C178.16 106.631 178.11 106.604 178.062 106.573C178.015 106.541 177.971 106.505 177.93 106.464C177.89 106.424 177.854 106.38 177.822 106.332C177.79 106.285 177.763 106.235 177.742 106.182C177.72 106.129 177.704 106.074 177.692 106.018C177.681 105.963 177.675 105.906 177.675 105.848C177.675 105.791 177.681 105.734 177.692 105.678C177.704 105.622 177.72 105.568 177.742 105.515C177.763 105.462 177.79 105.412 177.822 105.365C177.854 105.317 177.89 105.273 177.93 105.233C177.971 105.192 178.015 105.156 178.062 105.124C178.11 105.092 178.16 105.066 178.213 105.044C178.266 105.022 178.321 105.005 178.377 104.994C178.433 104.983 178.49 104.977 178.547 104.977C178.603 104.977 178.66 104.983 178.716 104.994C178.773 105.005 178.827 105.022 178.88 105.044C178.933 105.066 178.983 105.092 179.031 105.124C179.078 105.156 179.122 105.192 179.163 105.233C179.203 105.273 179.239 105.317 179.271 105.365C179.303 105.412 179.33 105.462 179.352 105.515C179.373 105.568 179.389 105.622 179.401 105.678C179.412 105.734 179.418 105.791 179.418 105.848Z" fill="#CD916E"/>
<path d="M179.01 106.257C178.528 106.257 178.138 105.867 178.138 105.386C178.138 105.265 178.162 105.15 178.207 105.046C177.895 105.178 177.675 105.488 177.675 105.848C177.675 106.329 178.065 106.719 178.547 106.719C178.907 106.719 179.217 106.501 179.349 106.188C179.244 106.232 179.13 106.257 179.01 106.257Z" fill="#B67F5F"/>
<path d="M177.23 101.928C177.23 101.986 177.219 102.041 177.197 102.094C177.175 102.148 177.144 102.195 177.103 102.236C177.062 102.277 177.015 102.308 176.961 102.33C176.908 102.352 176.853 102.363 176.795 102.363C176.737 102.363 176.681 102.352 176.628 102.33C176.575 102.308 176.528 102.277 176.487 102.236C176.446 102.195 176.414 102.148 176.393 102.094C176.37 102.041 176.359 101.986 176.359 101.928C176.359 101.87 176.37 101.814 176.393 101.761C176.414 101.708 176.446 101.661 176.487 101.62C176.528 101.579 176.575 101.547 176.628 101.526C176.681 101.503 176.737 101.492 176.795 101.492C176.853 101.492 176.908 101.503 176.961 101.526C177.015 101.547 177.062 101.579 177.103 101.62C177.144 101.661 177.175 101.708 177.197 101.761C177.219 101.814 177.23 101.87 177.23 101.928Z" fill="#CD916E"/>
<path d="M173.972 99.764C173.38 99.764 172.898 100.246 172.898 100.839C172.898 101.432 173.38 101.914 173.972 101.914C174.565 101.914 175.047 101.432 175.047 100.839C175.047 100.246 174.565 99.764 173.972 99.764ZM173.972 101.506C173.604 101.506 173.305 101.207 173.305 100.839C173.305 100.471 173.604 100.172 173.972 100.172C174.341 100.172 174.64 100.471 174.64 100.839C174.64 101.207 174.341 101.506 173.972 101.506Z" fill="#805A45"/>
<path d="M177.472 105.848C177.472 106.441 177.954 106.924 178.547 106.924C179.139 106.924 179.621 106.441 179.621 105.848C179.621 105.256 179.139 104.773 178.547 104.773C177.954 104.773 177.472 105.256 177.472 105.848ZM178.547 105.181C178.915 105.181 179.214 105.481 179.214 105.848C179.214 106.216 178.915 106.516 178.547 106.516C178.178 106.516 177.879 106.216 177.879 105.848C177.879 105.481 178.178 105.181 178.547 105.181Z" fill="#805A45"/>
<path d="M174.408 104.338C173.935 104.338 173.551 104.722 173.551 105.195C173.551 105.668 173.935 106.052 174.408 106.052C174.88 106.052 175.265 105.668 175.265 105.195C175.265 104.722 174.88 104.338 174.408 104.338ZM174.408 105.645C174.16 105.645 173.959 105.443 173.959 105.195C173.959 104.947 174.16 104.746 174.408 104.746C174.656 104.746 174.858 104.947 174.858 105.195C174.858 105.443 174.656 105.645 174.408 105.645Z" fill="#805A45"/>
<path d="M176.164 101.928C176.164 102.28 176.452 102.567 176.804 102.567C177.157 102.567 177.443 102.28 177.443 101.928C177.443 101.575 177.157 101.289 176.804 101.289C176.452 101.289 176.164 101.575 176.164 101.928ZM176.804 101.696C176.932 101.696 177.036 101.8 177.036 101.928C177.036 102.056 176.931 102.16 176.804 102.16C176.676 102.16 176.572 102.056 176.572 101.928C176.572 101.8 176.676 101.696 176.804 101.696Z" fill="#805A45"/>
<path d="M180.943 105.181C180.973 105.181 181.005 105.174 181.034 105.16C181.134 105.109 181.175 104.987 181.125 104.886L180.907 104.45C180.857 104.35 180.734 104.309 180.633 104.359C180.533 104.409 180.492 104.532 180.542 104.633L180.76 105.069C180.796 105.14 180.868 105.181 180.943 105.181Z" fill="#805A45"/>
<path d="M178.547 103.874C178.577 103.874 178.609 103.867 178.638 103.852L179.073 103.635C179.174 103.585 179.214 103.462 179.164 103.362C179.114 103.261 178.991 103.22 178.891 103.271L178.455 103.488C178.355 103.538 178.314 103.661 178.364 103.761C178.4 103.833 178.472 103.874 178.547 103.874Z" fill="#805A45"/>
<path d="M172.484 103.326C172.519 103.397 172.591 103.438 172.666 103.438C172.696 103.438 172.727 103.432 172.757 103.417C172.858 103.367 172.898 103.244 172.847 103.144L172.63 102.708C172.58 102.607 172.457 102.566 172.357 102.616C172.256 102.667 172.215 102.789 172.266 102.89L172.484 103.326Z" fill="#805A45"/>
<path d="M175.841 106.755L175.406 106.973C175.305 107.024 175.265 107.146 175.315 107.247C175.351 107.318 175.423 107.359 175.497 107.359C175.528 107.359 175.559 107.352 175.588 107.338L176.024 107.12C176.124 107.069 176.165 106.947 176.115 106.846C176.064 106.746 175.942 106.705 175.841 106.755Z" fill="#805A45"/>
<path d="M176.077 98.5164L175.859 98.2983C175.779 98.2189 175.65 98.2189 175.571 98.2983C175.491 98.3785 175.491 98.5076 175.571 98.5871L175.789 98.8044C175.828 98.8445 175.881 98.8642 175.933 98.8642C175.985 98.8642 176.037 98.8445 176.077 98.8044C176.156 98.7249 176.156 98.5958 176.077 98.5164Z" fill="#805A45"/>
<path d="M175.136 103.308C175.055 103.388 175.055 103.517 175.136 103.596L175.353 103.814C175.393 103.854 175.445 103.874 175.497 103.874C175.549 103.874 175.601 103.854 175.641 103.814C175.721 103.735 175.721 103.606 175.641 103.526L175.424 103.308C175.344 103.229 175.215 103.229 175.136 103.308Z" fill="#805A45"/>
<path d="M177.689 108.027V108.244C177.689 108.357 177.78 108.448 177.893 108.448C178.006 108.448 178.097 108.357 178.097 108.244V108.027C178.097 107.914 178.006 107.823 177.893 107.823C177.78 107.823 177.689 107.914 177.689 108.027Z" fill="#805A45"/>
<path d="M176.73 100.112L176.948 99.8938C177.028 99.8143 177.028 99.6852 176.948 99.6057C176.869 99.5263 176.74 99.5263 176.66 99.6057L176.442 99.8238C176.363 99.9032 176.363 100.032 176.442 100.112C176.482 100.151 176.534 100.172 176.586 100.172C176.638 100.172 176.691 100.151 176.73 100.112Z" fill="#805A45"/>
<path d="M180.108 99.3148L180.661 99.5226C180.758 99.5591 180.86 99.5773 180.962 99.5773C181.099 99.5773 181.236 99.5437 181.36 99.4788C181.576 99.3651 181.734 99.1646 181.794 98.9276L181.99 98.1394C182.066 97.836 181.977 97.5269 181.751 97.311C181.525 97.0952 181.212 97.0201 180.913 97.1098L180.225 97.3161C179.914 97.4095 179.679 97.6763 179.626 97.9965L179.563 98.3712C179.496 98.7745 179.725 99.1719 180.108 99.3148ZM179.966 98.4383L180.027 98.0635C180.056 97.8958 180.179 97.7558 180.342 97.707L181.03 97.5006C181.074 97.4875 181.118 97.4809 181.161 97.4809C181.274 97.4809 181.384 97.524 181.47 97.6056C181.588 97.7186 181.635 97.8812 181.595 98.0402L181.398 98.8292C181.367 98.9553 181.286 99.0574 181.171 99.1179C181.056 99.1784 180.926 99.1865 180.804 99.1412L180.251 98.9334C180.05 98.8583 179.93 98.6498 179.966 98.4383Z" fill="#805A45"/>
<path d="M181.678 100.352C181.375 100.503 181.242 100.866 181.376 101.176L181.587 101.67C181.675 101.876 181.861 102.019 182.082 102.051C182.114 102.056 182.146 102.058 182.176 102.058C182.365 102.058 182.543 101.976 182.666 101.827L183.007 101.419C183.12 101.283 183.171 101.111 183.151 100.935C183.13 100.759 183.04 100.604 182.899 100.498L182.61 100.281C182.415 100.135 182.158 100.112 181.94 100.221L181.678 100.352ZM182.122 100.586C182.156 100.569 182.191 100.561 182.227 100.561C182.276 100.561 182.324 100.576 182.365 100.608L182.655 100.824C182.706 100.863 182.739 100.919 182.746 100.982C182.753 101.047 182.735 101.109 182.693 101.158L182.353 101.566C182.3 101.63 182.223 101.659 182.141 101.647C182.06 101.636 181.994 101.585 181.962 101.51L181.75 101.016C181.702 100.903 181.75 100.772 181.86 100.717L182.122 100.586Z" fill="#805A45"/>
<path d="M183.339 99.7355C183.691 99.7355 183.978 99.449 183.978 99.096C183.978 98.7438 183.691 98.4566 183.339 98.4566C182.986 98.4566 182.699 98.7438 182.699 99.096C182.699 99.449 182.986 99.7355 183.339 99.7355ZM183.339 98.8642C183.466 98.8642 183.571 98.9684 183.571 99.096C183.571 99.2244 183.466 99.3279 183.339 99.3279C183.21 99.3279 183.107 99.2244 183.107 99.096C183.107 98.9684 183.21 98.8642 183.339 98.8642Z" fill="#805A45"/>
<mask id="mask0_107_106" style="mask-type:luminance" maskUnits="userSpaceOnUse" x="172" y="96" width="12" height="12">
<path d="M172.24 96.0255H184V107.76H172.24V96.0255Z" fill="white"/>
</mask>
<g mask="url(#mask0_107_106)">
<path d="M183.401 103.664C183.308 103.677 183.214 103.685 183.121 103.685C182.26 103.685 181.505 103.134 181.242 102.315C181.17 102.091 180.986 101.924 180.761 101.882C179.217 101.588 178.097 100.234 178.097 98.6607C178.097 98.0111 178.287 97.3825 178.647 96.8437C178.726 96.7255 178.741 96.5768 178.687 96.4463C178.633 96.3157 178.517 96.2209 178.377 96.1932C177.683 96.0562 176.972 96.0255 176.262 96.1014C174.842 96.2545 173.519 96.84 172.435 97.7952C172.35 97.8703 172.342 97.9987 172.416 98.0832C172.491 98.1678 172.62 98.1758 172.704 98.1015C173.725 97.2024 174.97 96.6504 176.306 96.5068C176.974 96.4353 177.645 96.4638 178.297 96.5936C178.302 96.5943 178.307 96.5965 178.31 96.6023C178.312 96.6089 178.31 96.6132 178.308 96.6176C177.903 97.2236 177.689 97.9301 177.689 98.6607C177.689 100.429 178.949 101.952 180.684 102.283C180.762 102.297 180.827 102.358 180.854 102.439C181.172 103.428 182.082 104.092 183.121 104.092C183.234 104.092 183.347 104.084 183.46 104.067C183.475 104.065 183.483 104.073 183.483 104.076C183.287 105.284 182.753 106.412 181.94 107.337C181.866 107.422 181.874 107.551 181.958 107.625C181.997 107.659 182.045 107.675 182.092 107.675C182.149 107.675 182.206 107.652 182.246 107.606C183.11 106.623 183.677 105.425 183.886 104.141C183.907 104.011 183.866 103.882 183.772 103.788C183.677 103.69 183.538 103.644 183.401 103.664Z" fill="#805A45"/>
</g>
<path d="M181.342 107.935C180.148 108.986 178.613 109.565 177.022 109.565C176.105 109.565 175.217 109.379 174.385 109.013C173.581 108.658 172.866 108.154 172.26 107.512C171.654 106.871 171.192 106.13 170.885 105.309C170.567 104.455 170.432 103.554 170.484 102.631C170.567 101.192 171.143 99.796 172.107 98.6994C172.181 98.6148 172.173 98.4865 172.088 98.4121C172.004 98.3377 171.875 98.3457 171.801 98.4303C170.777 99.5948 170.165 101.078 170.077 102.608C170.021 103.588 170.165 104.544 170.504 105.451C170.83 106.324 171.321 107.111 171.964 107.792C172.607 108.473 173.367 109.01 174.22 109.386C175.105 109.775 176.048 109.973 177.022 109.973C178.712 109.973 180.343 109.358 181.612 108.241C181.696 108.167 181.705 108.038 181.63 107.953C181.556 107.869 181.427 107.861 181.342 107.935Z" fill="#805A45"/>
</g>
<defs>
<clipPath id="clip0_107_106">
<rect width="14" height="14" fill="white" transform="translate(170 96)"/>
</clipPath>
</defs>
</svg>
