<svg width="209" height="134" viewBox="0 0 209 134" fill="none" xmlns="http://www.w3.org/2000/svg">
<rect width="209" height="134" rx="4" fill="white"/>
<rect x="0.5" y="0.5" width="208" height="133" rx="3.5" stroke="black" stroke-opacity="0.4"/>
<circle cx="11" cy="9" r="3.5" fill="#EE6A5F" stroke="#CE5348"/>
<circle cx="21" cy="9" r="3.5" fill="#F5BD50" stroke="#D6A244"/>
<circle cx="31" cy="9" r="3.5" fill="#61C454" stroke="#58A943"/>
<line y1="17.5" x2="209" y2="17.5" stroke="#979797"/>
<path d="M0 17H209V130C209 132.209 207.209 134 205 134H4C1.79086 134 0 132.209 0 130V17Z" fill="#C4C4C4" fill-opacity="0.2"/>
<path d="M0.5 17.5H208.5V130C208.5 131.933 206.933 133.5 205 133.5H4C2.067 133.5 0.5 131.933 0.5 130V17.5Z" stroke="#979797" stroke-opacity="0.4"/>
<rect x="62.5" y="54.5" width="88" height="24" rx="3.5" fill="#FC7E04" stroke="#FFAD5E"/>
<rect x="127" y="69" width="19" height="6" rx="2" fill="white"/>
</svg>
