<svg width="643" height="90" viewBox="0 0 643 90" fill="none" xmlns="http://www.w3.org/2000/svg">
<path d="M70.1856 14.019C70.1083 13.6585 70.002 13.308 69.9053 12.9474C69.8087 12.5869 69.7894 12.4567 69.7217 12.2164C68.4258 10.0361 66.8123 8.07681 64.9383 6.40788C61.7148 3.50536 57.8003 1.55015 53.6013 0.745336C49.4023 -0.0594767 45.0719 0.315458 41.06 1.8312C44.2785 2.42861 47.3177 3.79738 49.935 5.82828C52.5524 7.85918 54.6755 10.496 56.1349 13.5283L56.0479 13.4582C55.6517 13.0576 55.2555 12.6871 54.8593 12.3165C50.6099 8.52934 45.191 6.44672 39.5863 6.44672C33.9816 6.44672 28.5627 8.52934 24.3132 12.3165C24.004 12.5869 23.7141 12.8873 23.4338 13.1778C23.1536 13.4682 22.6608 13.989 22.2742 14.4096C22.0616 14.6499 21.8394 14.8903 21.6364 15.1507C20.8344 16.0219 20.071 17.0234 19.3269 18.0249C23.5766 16.1233 28.2428 15.4458 32.8331 16.0639C37.4234 16.682 41.7677 18.5727 45.4074 21.5365C49.0471 24.5004 51.8474 28.4275 53.5127 32.9034C55.178 37.3794 55.6466 42.2382 54.869 46.9671C54.869 47.0773 54.811 47.1874 54.7917 47.2976C55.5454 46.9171 56.2895 46.4964 57.0143 46.0358C61.0256 43.5156 64.38 40.0153 66.784 35.8409C66.871 35.6806 66.9483 35.5204 67.0353 35.3702C70.5846 28.8973 71.7062 21.2953 70.1856 14.019Z" fill="#FF9400"/>
<path d="M88.7394 15.7616C89.3482 16.5527 89.9183 17.3639 90.4595 18.1951C94.1022 23.7893 96.159 30.3296 96.3964 37.0739C96.6338 43.8182 95.0424 50.4965 91.8027 56.3509C88.2277 62.1833 83.0088 66.7355 76.8533 69.3903C70.6977 72.0452 63.9034 72.6744 57.3912 71.1925C55.7915 70.8275 54.2214 70.3354 52.6947 69.7204C53.6606 70.9684 54.8318 72.0296 56.1542 72.855C57.4602 73.6578 58.8933 74.2139 60.3868 74.4974H59.7877C59.0082 74.4573 58.2254 74.3872 57.4395 74.2871H57.3332C55.8215 74.096 54.3236 73.8016 52.8493 73.4058L52.6174 73.3357C51.912 73.1454 51.2162 72.9351 50.5205 72.6947H50.4625C49.7184 72.4243 48.9743 72.1439 48.2399 71.8235C47.5538 71.523 46.8677 71.2026 46.1912 70.822L45.7854 70.6217C45.0993 70.2512 44.4132 69.8706 43.7464 69.46C43.0796 69.0494 42.4998 68.6588 41.891 68.2282L41.7364 68.098L41.5528 67.9879C41.0503 67.6273 40.5864 67.2468 40.0743 66.8562H40.0066C35.9136 63.4947 32.6013 59.2236 30.3142 54.3579C29.976 53.6469 29.6668 52.9258 29.3479 52.1948L29.1159 51.5839C28.8937 50.993 28.6908 50.4122 28.5071 49.8213C28.4492 49.6411 28.3815 49.4608 28.3332 49.2805C28.1109 48.5695 27.908 47.8384 27.7341 47.1174L27.6181 46.6767C27.6181 46.6767 26.9513 48.3792 26.7967 48.8299C25.5857 52.2085 25.2166 55.8491 25.7233 59.4148C26.23 62.9806 27.5963 66.3563 29.6957 69.2297C30.8329 70.7887 32.1727 72.1772 33.6771 73.3557C31.2805 74.4273 28.6118 74.6579 26.0771 74.0125C23.5424 73.3671 21.2806 71.881 19.6361 69.7805C22.9631 74.7412 27.2221 78.9548 32.1581 82.1689C37.094 85.383 42.6051 87.5314 48.3614 88.4854C54.1176 89.4394 60.0005 89.1794 65.6574 87.7209C71.3144 86.2624 76.629 83.6354 81.2829 79.9974C85.9368 76.3594 89.8342 71.7852 92.7415 66.549C95.6488 61.3127 97.5062 55.522 98.2024 49.524C98.8987 43.526 98.4194 37.4441 96.7934 31.6427C95.1673 25.8412 92.4279 20.4396 88.7394 15.7616Z" fill="#FF3500"/>
<path d="M90.4595 18.1951C89.9183 17.3639 89.3482 16.5527 88.7394 15.7616C88.3045 15.2108 87.8503 14.67 87.3961 14.1292C81.0201 6.79114 72.4949 1.82651 63.1312 -0.00146484C63.8343 0.78806 64.4987 1.61364 65.1219 2.47215C65.6437 3.1932 66.0883 3.9443 66.5714 4.70541C67.9406 7.04132 69.0002 9.55754 69.7217 12.1863C69.7894 12.4267 69.8473 12.6771 69.9053 12.9174C69.9633 13.1578 70.1082 13.6284 70.1856 13.989C71.7136 21.2749 70.5917 28.8889 67.0353 35.3702C66.9483 35.5204 66.871 35.6807 66.784 35.8409C64.6791 39.5137 61.8386 42.676 58.4541 45.1144C57.9806 45.4549 57.4878 45.7754 57.0143 46.1159C56.2895 46.5766 55.5454 46.9972 54.7917 47.3777L54.6274 47.4779C52.9981 48.3028 51.3001 48.9732 49.5541 49.4808C42.179 51.5668 34.3076 50.5557 27.6471 46.6667L27.7631 47.1073C27.937 47.8284 28.1399 48.5595 28.3622 49.2705C28.4105 49.4508 28.4782 49.631 28.5361 49.8113C28.7197 50.4022 28.9227 50.983 29.1449 51.5739L29.3769 52.1848C29.6668 52.9158 29.976 53.6369 30.3432 54.3479C31.0973 55.9371 31.9629 57.4667 32.933 58.9246C33.4162 59.6657 33.8993 60.3767 34.4791 61.0777C36.1292 63.2003 38.0063 65.122 40.0743 66.8061H40.1419C40.6251 67.1967 41.1083 67.5772 41.6204 67.9378L41.7654 68.0479L41.92 68.1681C42.5288 68.5987 43.1376 69.0093 43.7754 69.3999C44.4132 69.7905 45.1283 70.1911 45.8144 70.5616L46.2202 70.7619C46.8967 71.1124 47.5828 71.4329 48.2689 71.7634C49.0033 72.0838 49.7474 72.3642 50.4915 72.6346H50.5494C51.2452 72.875 51.941 73.0853 52.6464 73.2756L52.8783 73.3457C54.3526 73.7415 55.8504 74.0359 57.3622 74.227H57.4685C58.2544 74.3271 59.0372 74.3972 59.8167 74.4373H60.4158C59.3066 74.2235 58.2284 73.8634 57.2076 73.3657C56.8597 73.1854 56.5215 73.0052 56.1832 72.7949C54.8608 71.9695 53.6896 70.9083 52.7237 69.6603C54.2504 70.2753 55.8205 70.7674 57.4201 71.1324C58.0193 71.2726 58.6088 71.3828 59.2079 71.4829C63.9846 72.2889 68.8746 71.9808 73.5218 70.581C78.1691 69.1812 82.4566 66.725 86.0722 63.3911C86.6617 62.8403 87.2415 62.2595 87.7923 61.6586C89.2974 60.0331 90.641 58.2549 91.8027 56.3508C95.0424 50.4965 96.6338 43.8182 96.3964 37.0739C96.159 30.3296 94.1022 23.7893 90.4595 18.1951Z" fill="#FC7E05"/>
<path d="M329.155 21.175V31.315H316.935V67H304.195V31.315H292.105V21.175H329.155ZM373.584 21.175V67H360.844V48.605H345.309V67H332.569V21.175H345.309V38.4H360.844V21.175H373.584ZM408.564 59.525H392.314L389.844 67H376.454L393.159 21.175H407.849L424.489 67H411.034L408.564 59.525ZM405.379 49.775L400.439 34.955L395.564 49.775H405.379ZM440.082 21.175V67H427.342V21.175H440.082ZM458.777 57.25H473.012V67H446.037V21.175H458.777V57.25ZM505.655 59.525H489.405L486.935 67H473.545L490.25 21.175H504.94L521.58 67H508.125L505.655 59.525ZM502.47 49.775L497.53 34.955L492.655 49.775H502.47ZM566.878 67H554.138L537.173 41.39V67H524.433V21.175H537.173L554.138 47.11V21.175H566.878V67ZM590.97 21.175C595.78 21.175 599.983 22.15 603.58 24.1C607.22 26.0067 610.015 28.6933 611.965 32.16C613.915 35.6267 614.89 39.5917 614.89 44.055C614.89 48.475 613.893 52.4183 611.9 55.885C609.95 59.3517 607.155 62.0817 603.515 64.075C599.918 66.025 595.737 67 590.97 67H572.835V21.175H590.97ZM589.995 55.755C593.722 55.755 596.647 54.7367 598.77 52.7C600.893 50.6633 601.955 47.7817 601.955 44.055C601.955 40.285 600.893 37.3817 598.77 35.345C596.647 33.265 593.722 32.225 589.995 32.225H585.575V55.755H589.995Z" fill="#FC7E05"/>
<path d="M160.845 36.45C160.845 39.2233 160.195 41.7583 158.895 44.055C157.638 46.3083 155.71 48.1283 153.11 49.515C150.553 50.8583 147.412 51.53 143.685 51.53H137.38V67H124.64V21.175H143.685C147.368 21.175 150.488 21.825 153.045 23.125C155.645 24.425 157.595 26.2233 158.895 28.52C160.195 30.8167 160.845 33.46 160.845 36.45ZM142.45 41.39C146.047 41.39 147.845 39.7433 147.845 36.45C147.845 33.1133 146.047 31.445 142.45 31.445H137.38V41.39H142.45ZM181.498 21.175C186.308 21.175 190.512 22.15 194.108 24.1C197.748 26.0067 200.543 28.6933 202.493 32.16C204.443 35.6267 205.418 39.5917 205.418 44.055C205.418 48.475 204.422 52.4183 202.428 55.885C200.478 59.3517 197.683 62.0817 194.043 64.075C190.447 66.025 186.265 67 181.498 67H163.363V21.175H181.498ZM180.523 55.755C184.25 55.755 187.175 54.7367 189.298 52.7C191.422 50.6633 192.483 47.7817 192.483 44.055C192.483 40.285 191.422 37.3817 189.298 35.345C187.175 33.265 184.25 32.225 180.523 32.225H176.103V55.755H180.523ZM244.766 36.45C244.766 39.2233 244.116 41.7583 242.816 44.055C241.559 46.3083 239.631 48.1283 237.031 49.515C234.474 50.8583 231.333 51.53 227.606 51.53H221.301V67H208.561V21.175H227.606C231.289 21.175 234.409 21.825 236.966 23.125C239.566 24.425 241.516 26.2233 242.816 28.52C244.116 30.8167 244.766 33.46 244.766 36.45ZM226.371 41.39C229.968 41.39 231.766 39.7433 231.766 36.45C231.766 33.1133 229.968 31.445 226.371 31.445H221.301V41.39H226.371ZM276.274 59.525H260.024L257.554 67H244.164L260.869 21.175H275.559L292.199 67H278.744L276.274 59.525ZM273.089 49.775L268.149 34.955L263.274 49.775H273.089Z" fill="black"/>
<path d="M633.24 3.06014C634.67 3.32495 635.909 3.98438 636.945 5.02803C637.722 5.81207 638.256 6.67399 638.598 7.70726C638.888 8.58995 638.945 9.05207 638.977 10.7811L639.008 12.3284H639.484C640.07 12.3284 640.5 12.4478 640.941 12.7334C641.314 12.9826 641.469 13.1436 641.708 13.5434C642.076 14.1509 642.055 13.6992 642.039 20.8334L642.024 27.2615L641.822 27.6769C641.547 28.2273 641.148 28.6271 640.614 28.8815L640.21 29.0736H632.022H623.834L623.497 28.9126C622.808 28.5855 622.326 28.0507 622.103 27.3705C621.994 27.0434 621.994 27.0278 622.004 20.6309L622.02 14.2236L622.139 13.9225C622.305 13.5123 622.688 13.019 623.025 12.7853C623.487 12.4634 623.803 12.37 624.492 12.3388L625.103 12.318V10.7759C625.103 8.69899 625.207 8.10188 625.777 6.90245C626.627 5.09553 628.311 3.6988 630.26 3.18476C630.835 3.03418 630.954 3.01861 631.866 3.00303C632.55 2.99264 632.97 3.00822 633.24 3.06014ZM631.151 5.81207C629.679 6.12361 628.43 7.29188 628 8.75611C627.886 9.14553 627.886 9.10399 627.835 11.695L627.824 12.3284H632.011H636.204L636.183 10.7292C636.157 8.96899 636.142 8.84438 635.805 8.13822C635.561 7.62418 635.359 7.33861 634.929 6.91284C634.375 6.36764 633.654 5.97822 632.903 5.81207C632.483 5.71861 631.587 5.71861 631.151 5.81207ZM631.493 16.8665C630.597 17.1053 629.97 17.7959 629.819 18.7201C629.69 19.4834 630.084 20.4128 630.706 20.8282L630.908 20.9632V22.3703C630.908 23.6269 630.918 23.7982 631.006 23.9851C631.405 24.8471 632.639 24.8471 633.038 23.9851C633.126 23.7982 633.136 23.6217 633.141 22.3755V20.9736L633.411 20.7659C634.312 20.0598 634.515 18.7669 633.877 17.7907C633.364 17.0119 632.374 16.6328 631.493 16.8665Z" fill="black"/>
</svg>
